<svg xmlns="http://www.w3.org/2000/svg" viewBox="0 0 64 64">
  <rect width="64" height="64" rx="14" fill="#ffffff"/>
  <g fill="#e30613">
    <circle cx="32" cy="32" r="12" fill="#e30613"/>
    <circle cx="49.0" cy="32.0" r="2.1"/><circle cx="47.1" cy="39.9" r="2.1"/><circle cx="41.7" cy="46.0" r="2.1"/><circle cx="34.0" cy="48.9" r="2.1"/><circle cx="26.0" cy="47.9" r="2.1"/><circle cx="19.3" cy="43.3" r="2.1"/><circle cx="15.5" cy="36.1" r="2.1"/><circle cx="15.5" cy="27.9" r="2.1"/><circle cx="19.3" cy="20.7" r="2.1"/><circle cx="26.0" cy="16.1" r="2.1"/><circle cx="34.0" cy="15.1" r="2.1"/><circle cx="41.7" cy="18.0" r="2.1"/><circle cx="47.1" cy="24.1" r="2.1"/>
    <circle cx="54.2" cy="35.8" r="1.4"/><circle cx="51.5" cy="43.2" r="1.4"/><circle cx="46.5" cy="49.2" r="1.4"/><circle cx="39.8" cy="53.1" r="1.4"/><circle cx="32.1" cy="54.5" r="1.4"/><circle cx="24.4" cy="53.2" r="1.4"/><circle cx="17.6" cy="49.3" r="1.4"/><circle cx="12.6" cy="43.3" r="1.4"/><circle cx="9.9" cy="36.0" r="1.4"/><circle cx="9.8" cy="28.2" r="1.4"/><circle cx="12.5" cy="20.8" r="1.4"/><circle cx="17.5" cy="14.8" r="1.4"/><circle cx="24.2" cy="10.9" r="1.4"/><circle cx="31.9" cy="9.5" r="1.4"/><circle cx="39.6" cy="10.8" r="1.4"/><circle cx="46.4" cy="14.7" r="1.4"/><circle cx="51.4" cy="20.7" r="1.4"/><circle cx="54.1" cy="28.0" r="1.4"/>
  </g>
</svg>
