<svg xmlns="http://www.w3.org/2000/svg" viewBox="0 0 460 460">
  <circle cx="230" cy="230" r="96.80000000000001" fill="#e30613"/>
      <circle cx="364.2" cy="230.0" r="14.9" fill="#e30613"/>
      <circle cx="352.6" cy="284.6" r="14.9" fill="#e30613"/>
      <circle cx="319.8" cy="329.7" r="14.9" fill="#e30613"/>
      <circle cx="271.5" cy="357.6" r="14.9" fill="#e30613"/>
      <circle cx="216.0" cy="363.5" r="14.9" fill="#e30613"/>
      <circle cx="162.9" cy="346.2" r="14.9" fill="#e30613"/>
      <circle cx="121.4" cy="308.9" r="14.9" fill="#e30613"/>
      <circle cx="98.7" cy="257.9" r="14.9" fill="#e30613"/>
      <circle cx="98.7" cy="202.1" r="14.9" fill="#e30613"/>
      <circle cx="121.4" cy="151.1" r="14.9" fill="#e30613"/>
      <circle cx="162.9" cy="113.8" r="14.9" fill="#e30613"/>
      <circle cx="216.0" cy="96.5" r="14.9" fill="#e30613"/>
      <circle cx="271.5" cy="102.4" r="14.9" fill="#e30613"/>
      <circle cx="319.8" cy="130.3" r="14.9" fill="#e30613"/>
      <circle cx="352.6" cy="175.4" r="14.9" fill="#e30613"/>
      <circle cx="404.5" cy="252.8" r="9.9" fill="#e30613"/>
      <circle cx="392.7" cy="297.2" r="9.9" fill="#e30613"/>
      <circle cx="369.7" cy="337.0" r="9.9" fill="#e30613"/>
      <circle cx="337.3" cy="369.5" r="9.9" fill="#e30613"/>
      <circle cx="297.5" cy="392.5" r="9.9" fill="#e30613"/>
      <circle cx="253.1" cy="404.5" r="9.9" fill="#e30613"/>
      <circle cx="207.2" cy="404.5" r="9.9" fill="#e30613"/>
      <circle cx="162.8" cy="392.7" r="9.9" fill="#e30613"/>
      <circle cx="123.0" cy="369.7" r="9.9" fill="#e30613"/>
      <circle cx="90.5" cy="337.3" r="9.9" fill="#e30613"/>
      <circle cx="67.5" cy="297.5" r="9.9" fill="#e30613"/>
      <circle cx="55.5" cy="253.1" r="9.9" fill="#e30613"/>
      <circle cx="55.5" cy="207.2" r="9.9" fill="#e30613"/>
      <circle cx="67.3" cy="162.8" r="9.9" fill="#e30613"/>
      <circle cx="90.3" cy="123.0" r="9.9" fill="#e30613"/>
      <circle cx="122.7" cy="90.5" r="9.9" fill="#e30613"/>
      <circle cx="162.5" cy="67.5" r="9.9" fill="#e30613"/>
      <circle cx="206.9" cy="55.5" r="9.9" fill="#e30613"/>
      <circle cx="252.8" cy="55.5" r="9.9" fill="#e30613"/>
      <circle cx="297.2" cy="67.3" r="9.9" fill="#e30613"/>
      <circle cx="337.0" cy="90.3" r="9.9" fill="#e30613"/>
      <circle cx="369.5" cy="122.7" r="9.9" fill="#e30613"/>
      <circle cx="392.5" cy="162.5" r="9.9" fill="#e30613"/>
      <circle cx="404.5" cy="206.9" r="9.9" fill="#e30613"/>
      <circle cx="435.1" cy="284.8" r="6.6" fill="#e30613"/>
      <circle cx="414.0" cy="336.0" r="6.6" fill="#e30613"/>
      <circle cx="380.3" cy="380.0" r="6.6" fill="#e30613"/>
      <circle cx="336.3" cy="413.8" r="6.6" fill="#e30613"/>
      <circle cx="285.1" cy="435.0" r="6.6" fill="#e30613"/>
      <circle cx="230.2" cy="442.3" r="6.6" fill="#e30613"/>
      <circle cx="175.2" cy="435.1" r="6.6" fill="#e30613"/>
      <circle cx="124.0" cy="414.0" r="6.6" fill="#e30613"/>
      <circle cx="80.0" cy="380.3" r="6.6" fill="#e30613"/>
      <circle cx="46.2" cy="336.3" r="6.6" fill="#e30613"/>
      <circle cx="25.0" cy="285.1" r="6.6" fill="#e30613"/>
      <circle cx="17.7" cy="230.2" r="6.6" fill="#e30613"/>
      <circle cx="24.9" cy="175.2" r="6.6" fill="#e30613"/>
      <circle cx="46.0" cy="124.0" r="6.6" fill="#e30613"/>
      <circle cx="79.7" cy="80.0" r="6.6" fill="#e30613"/>
      <circle cx="123.7" cy="46.2" r="6.6" fill="#e30613"/>
      <circle cx="174.9" cy="25.0" r="6.6" fill="#e30613"/>
      <circle cx="229.8" cy="17.7" r="6.6" fill="#e30613"/>
      <circle cx="284.8" cy="24.9" r="6.6" fill="#e30613"/>
      <circle cx="336.0" cy="46.0" r="6.6" fill="#e30613"/>
      <circle cx="380.0" cy="79.7" r="6.6" fill="#e30613"/>
      <circle cx="413.8" cy="123.7" r="6.6" fill="#e30613"/>
      <circle cx="435.0" cy="174.9" r="6.6" fill="#e30613"/>
      <circle cx="442.3" cy="229.8" r="6.6" fill="#e30613"/>
</svg>
