<svg xmlns="http://www.w3.org/2000/svg" viewBox="0 0 900 1040" font-family="'Bradley Hand','Segoe Print','Comic Sans MS',cursive">
  <defs>
    <clipPath id="destra-s"><path d="M 485 -20 C 385 210, 395 430, 475 560 C 539 665, 489 800, 395 1060 L 900 1060 L 900 -20 Z"/></clipPath>
    <clipPath id="sinistra-s"><path d="M 451 -20 C 351 210, 361 430, 441 560 C 505 665, 455 800, 361 1060 L 0 1060 L 0 -20 Z"/></clipPath>
    <clipPath id="pan-cyan"><rect x="340" y="45" width="490" height="765" rx="42"/></clipPath>
    <clipPath id="pan-blue"><rect x="75" y="170" width="445" height="760" rx="42"/></clipPath>
  </defs>
  <rect width="900" height="1040" fill="#ffffff"/>

  <!-- pannello ciano: a destra della S -->
  <g clip-path="url(#destra-s)">
    <rect x="340" y="45" width="490" height="765" rx="42" fill="#0fd9ea"/>
    <g clip-path="url(#pan-cyan)">
      <circle cx="672" cy="300" r="88" fill="#e30613"/>
      <circle cx="794.0" cy="300.0" r="13.5" fill="#e30613"/>
      <circle cx="783.5" cy="349.6" r="13.5" fill="#e30613"/>
      <circle cx="753.6" cy="390.7" r="13.5" fill="#e30613"/>
      <circle cx="709.7" cy="416.0" r="13.5" fill="#e30613"/>
      <circle cx="659.2" cy="421.3" r="13.5" fill="#e30613"/>
      <circle cx="611.0" cy="405.7" r="13.5" fill="#e30613"/>
      <circle cx="573.3" cy="371.7" r="13.5" fill="#e30613"/>
      <circle cx="552.7" cy="325.4" r="13.5" fill="#e30613"/>
      <circle cx="552.7" cy="274.6" r="13.5" fill="#e30613"/>
      <circle cx="573.3" cy="228.3" r="13.5" fill="#e30613"/>
      <circle cx="611.0" cy="194.3" r="13.5" fill="#e30613"/>
      <circle cx="659.2" cy="178.7" r="13.5" fill="#e30613"/>
      <circle cx="709.7" cy="184.0" r="13.5" fill="#e30613"/>
      <circle cx="753.6" cy="209.3" r="13.5" fill="#e30613"/>
      <circle cx="783.5" cy="250.4" r="13.5" fill="#e30613"/>
      <circle cx="830.6" cy="320.7" r="9.0" fill="#e30613"/>
      <circle cx="819.9" cy="361.1" r="9.0" fill="#e30613"/>
      <circle cx="799.0" cy="397.3" r="9.0" fill="#e30613"/>
      <circle cx="769.5" cy="426.8" r="9.0" fill="#e30613"/>
      <circle cx="733.4" cy="447.8" r="9.0" fill="#e30613"/>
      <circle cx="693.0" cy="458.6" r="9.0" fill="#e30613"/>
      <circle cx="651.3" cy="458.6" r="9.0" fill="#e30613"/>
      <circle cx="610.9" cy="447.9" r="9.0" fill="#e30613"/>
      <circle cx="574.7" cy="427.0" r="9.0" fill="#e30613"/>
      <circle cx="545.2" cy="397.5" r="9.0" fill="#e30613"/>
      <circle cx="524.2" cy="361.4" r="9.0" fill="#e30613"/>
      <circle cx="513.4" cy="321.0" r="9.0" fill="#e30613"/>
      <circle cx="513.4" cy="279.3" r="9.0" fill="#e30613"/>
      <circle cx="524.1" cy="238.9" r="9.0" fill="#e30613"/>
      <circle cx="545.0" cy="202.7" r="9.0" fill="#e30613"/>
      <circle cx="574.5" cy="173.2" r="9.0" fill="#e30613"/>
      <circle cx="610.6" cy="152.2" r="9.0" fill="#e30613"/>
      <circle cx="651.0" cy="141.4" r="9.0" fill="#e30613"/>
      <circle cx="692.7" cy="141.4" r="9.0" fill="#e30613"/>
      <circle cx="733.1" cy="152.1" r="9.0" fill="#e30613"/>
      <circle cx="769.3" cy="173.0" r="9.0" fill="#e30613"/>
      <circle cx="798.8" cy="202.5" r="9.0" fill="#e30613"/>
      <circle cx="819.8" cy="238.6" r="9.0" fill="#e30613"/>
      <circle cx="830.6" cy="279.0" r="9.0" fill="#e30613"/>
      <circle cx="858.5" cy="349.8" r="6.0" fill="#e30613"/>
      <circle cx="839.2" cy="396.3" r="6.0" fill="#e30613"/>
      <circle cx="808.6" cy="436.3" r="6.0" fill="#e30613"/>
      <circle cx="768.7" cy="467.1" r="6.0" fill="#e30613"/>
      <circle cx="722.1" cy="486.4" r="6.0" fill="#e30613"/>
      <circle cx="672.2" cy="493.0" r="6.0" fill="#e30613"/>
      <circle cx="622.2" cy="486.5" r="6.0" fill="#e30613"/>
      <circle cx="575.7" cy="467.2" r="6.0" fill="#e30613"/>
      <circle cx="535.7" cy="436.6" r="6.0" fill="#e30613"/>
      <circle cx="504.9" cy="396.7" r="6.0" fill="#e30613"/>
      <circle cx="485.6" cy="350.1" r="6.0" fill="#e30613"/>
      <circle cx="479.0" cy="300.2" r="6.0" fill="#e30613"/>
      <circle cx="485.5" cy="250.2" r="6.0" fill="#e30613"/>
      <circle cx="504.8" cy="203.7" r="6.0" fill="#e30613"/>
      <circle cx="535.4" cy="163.7" r="6.0" fill="#e30613"/>
      <circle cx="575.3" cy="132.9" r="6.0" fill="#e30613"/>
      <circle cx="621.9" cy="113.6" r="6.0" fill="#e30613"/>
      <circle cx="671.8" cy="107.0" r="6.0" fill="#e30613"/>
      <circle cx="721.8" cy="113.5" r="6.0" fill="#e30613"/>
      <circle cx="768.3" cy="132.8" r="6.0" fill="#e30613"/>
      <circle cx="808.3" cy="163.4" r="6.0" fill="#e30613"/>
      <circle cx="839.1" cy="203.3" r="6.0" fill="#e30613"/>
      <circle cx="858.4" cy="249.9" r="6.0" fill="#e30613"/>
      <circle cx="865.0" cy="299.8" r="6.0" fill="#e30613"/>
    </g>
  </g>

  <!-- pannello blu: a sinistra della S -->
  <g clip-path="url(#sinistra-s)">
    <rect x="75" y="170" width="445" height="760" rx="42" fill="#2e9dc9"/>
    <g clip-path="url(#pan-blue)">
      <circle cx="160" cy="800" r="75.67999999999999" fill="#e30613"/>
      <circle cx="264.9" cy="800.0" r="11.6" fill="#e30613"/>
      <circle cx="255.8" cy="842.7" r="11.6" fill="#e30613"/>
      <circle cx="230.2" cy="878.0" r="11.6" fill="#e30613"/>
      <circle cx="192.4" cy="899.8" r="11.6" fill="#e30613"/>
      <circle cx="149.0" cy="904.3" r="11.6" fill="#e30613"/>
      <circle cx="107.5" cy="890.9" r="11.6" fill="#e30613"/>
      <circle cx="75.1" cy="861.7" r="11.6" fill="#e30613"/>
      <circle cx="57.4" cy="821.8" r="11.6" fill="#e30613"/>
      <circle cx="57.4" cy="778.2" r="11.6" fill="#e30613"/>
      <circle cx="75.1" cy="738.3" r="11.6" fill="#e30613"/>
      <circle cx="107.5" cy="709.1" r="11.6" fill="#e30613"/>
      <circle cx="149.0" cy="695.7" r="11.6" fill="#e30613"/>
      <circle cx="192.4" cy="700.2" r="11.6" fill="#e30613"/>
      <circle cx="230.2" cy="722.0" r="11.6" fill="#e30613"/>
      <circle cx="255.8" cy="757.3" r="11.6" fill="#e30613"/>
      <circle cx="296.4" cy="817.8" r="7.7" fill="#e30613"/>
      <circle cx="287.2" cy="852.5" r="7.7" fill="#e30613"/>
      <circle cx="269.2" cy="883.7" r="7.7" fill="#e30613"/>
      <circle cx="243.9" cy="909.1" r="7.7" fill="#e30613"/>
      <circle cx="212.8" cy="927.1" r="7.7" fill="#e30613"/>
      <circle cx="178.1" cy="936.4" r="7.7" fill="#e30613"/>
      <circle cx="142.2" cy="936.4" r="7.7" fill="#e30613"/>
      <circle cx="107.5" cy="927.2" r="7.7" fill="#e30613"/>
      <circle cx="76.3" cy="909.2" r="7.7" fill="#e30613"/>
      <circle cx="50.9" cy="883.9" r="7.7" fill="#e30613"/>
      <circle cx="32.9" cy="852.8" r="7.7" fill="#e30613"/>
      <circle cx="23.6" cy="818.1" r="7.7" fill="#e30613"/>
      <circle cx="23.6" cy="782.2" r="7.7" fill="#e30613"/>
      <circle cx="32.8" cy="747.5" r="7.7" fill="#e30613"/>
      <circle cx="50.8" cy="716.3" r="7.7" fill="#e30613"/>
      <circle cx="76.1" cy="690.9" r="7.7" fill="#e30613"/>
      <circle cx="107.2" cy="672.9" r="7.7" fill="#e30613"/>
      <circle cx="141.9" cy="663.6" r="7.7" fill="#e30613"/>
      <circle cx="177.8" cy="663.6" r="7.7" fill="#e30613"/>
      <circle cx="212.5" cy="672.8" r="7.7" fill="#e30613"/>
      <circle cx="243.7" cy="690.8" r="7.7" fill="#e30613"/>
      <circle cx="269.1" cy="716.1" r="7.7" fill="#e30613"/>
      <circle cx="287.1" cy="747.2" r="7.7" fill="#e30613"/>
      <circle cx="296.4" cy="781.9" r="7.7" fill="#e30613"/>
      <circle cx="320.4" cy="842.8" r="5.2" fill="#e30613"/>
      <circle cx="303.8" cy="882.9" r="5.2" fill="#e30613"/>
      <circle cx="277.5" cy="917.3" r="5.2" fill="#e30613"/>
      <circle cx="243.1" cy="943.7" r="5.2" fill="#e30613"/>
      <circle cx="203.1" cy="960.3" r="5.2" fill="#e30613"/>
      <circle cx="160.1" cy="966.0" r="5.2" fill="#e30613"/>
      <circle cx="117.2" cy="960.4" r="5.2" fill="#e30613"/>
      <circle cx="77.1" cy="943.8" r="5.2" fill="#e30613"/>
      <circle cx="42.7" cy="917.5" r="5.2" fill="#e30613"/>
      <circle cx="16.3" cy="883.1" r="5.2" fill="#e30613"/>
      <circle cx="-0.3" cy="843.1" r="5.2" fill="#e30613"/>
      <circle cx="-6.0" cy="800.1" r="5.2" fill="#e30613"/>
      <circle cx="-0.4" cy="757.2" r="5.2" fill="#e30613"/>
      <circle cx="16.2" cy="717.1" r="5.2" fill="#e30613"/>
      <circle cx="42.5" cy="682.7" r="5.2" fill="#e30613"/>
      <circle cx="76.9" cy="656.3" r="5.2" fill="#e30613"/>
      <circle cx="116.9" cy="639.7" r="5.2" fill="#e30613"/>
      <circle cx="159.9" cy="634.0" r="5.2" fill="#e30613"/>
      <circle cx="202.8" cy="639.6" r="5.2" fill="#e30613"/>
      <circle cx="242.9" cy="656.2" r="5.2" fill="#e30613"/>
      <circle cx="277.3" cy="682.5" r="5.2" fill="#e30613"/>
      <circle cx="303.7" cy="716.9" r="5.2" fill="#e30613"/>
      <circle cx="320.3" cy="756.9" r="5.2" fill="#e30613"/>
      <circle cx="326.0" cy="799.9" r="5.2" fill="#e30613"/>
    </g>
  </g>

  <!-- lettering -->
  <text x="78" y="118" font-size="97" font-weight="700" fill="#2b86cc" letter-spacing="3" transform="rotate(-2 78 118)">STuDIO</text>
  <text x="852" y="918" font-size="78" font-weight="700" fill="#2b86cc" letter-spacing="4" text-anchor="end" transform="rotate(-1.5 852 918)">JUVENILIA</text>

  <!-- tagline -->
  <text x="450" y="1012" font-size="35" font-weight="800" fill="#e30613" text-anchor="middle" letter-spacing="1.5" font-family="'Helvetica Neue',Arial,sans-serif">STUDIO DI MEDICINA FISICA E RIABILITAZIONE</text>
</svg>
